<svg width="134" height="115" viewBox="0 0 134 115" fill="none" xmlns="http://www.w3.org/2000/svg">
<line x1="12" y1="45" x2="122" y2="45" stroke="white" stroke-width="2"/>
<rect x="121" y="47" width="12" height="24" stroke="white" stroke-width="2"/>
<rect x="1" y="47" width="12" height="24" stroke="white" stroke-width="2"/>
<rect x="79" y="103" width="11" height="24" transform="rotate(90 79 103)" stroke="white" stroke-width="2"/>
<line x1="12" y1="73" x2="54" y2="73" stroke="white" stroke-width="2"/>
<line x1="53" y1="74" x2="53" y2="104" stroke="white" stroke-width="2"/>
<line x1="81" y1="74" x2="81" y2="104" stroke="white" stroke-width="2"/>
<line x1="80" y1="73" x2="122" y2="73" stroke="white" stroke-width="2"/>
<rect x="47" y="1" width="40" height="38" rx="1" stroke="white" stroke-width="2"/>
<line x1="74.5" y1="2" x2="74.5" y2="38" stroke="white"/>
<line x1="80.5" y1="2" x2="80.5" y2="38" stroke="white"/>
<line x1="83.5" y1="2" x2="83.5" y2="38" stroke="white"/>
<line x1="77.5" y1="2" x2="77.5" y2="38" stroke="white"/>
<line x1="62.5" y1="2" x2="62.5" y2="38" stroke="white"/>
<line x1="68.5" y1="2" x2="68.5" y2="38" stroke="white"/>
<line x1="71.5" y1="2" x2="71.5" y2="38" stroke="white"/>
<line x1="65.5" y1="2" x2="65.5" y2="38" stroke="white"/>
<line x1="53.5" y1="2" x2="53.5" y2="38" stroke="white"/>
<line x1="50.5" y1="1" x2="50.5" y2="37" stroke="white"/>
<line x1="59.5" y1="2" x2="59.5" y2="38" stroke="white"/>
<line x1="56.5" y1="2" x2="56.5" y2="38" stroke="white"/>
<rect x="58" y="41" width="18" height="2" stroke="white" stroke-width="2"/>
<line x1="130.5" y1="47" x2="130.5" y2="71" stroke="white"/>
<line x1="3.5" y1="47" x2="3.5" y2="71" stroke="white"/>
<line x1="9.5" y1="47" x2="9.5" y2="71" stroke="white"/>
<line x1="5.5" y1="47" x2="5.5" y2="71" stroke="white"/>
<line x1="7.5" y1="47" x2="7.5" y2="71" stroke="white"/>
<line x1="124.5" y1="46" x2="124.5" y2="70" stroke="white"/>
<line x1="126.5" y1="47" x2="126.5" y2="71" stroke="white"/>
<line x1="128.5" y1="47" x2="128.5" y2="71" stroke="white"/>
<line x1="55" y1="111.5" x2="79" y2="111.5" stroke="white"/>
<line x1="55" y1="105.5" x2="79" y2="105.5" stroke="white"/>
<line x1="55" y1="107.5" x2="79" y2="107.5" stroke="white"/>
<line x1="55" y1="109.5" x2="79" y2="109.5" stroke="white"/>
</svg>
