<svg width="148" height="72" viewBox="0 0 148 72" fill="none" xmlns="http://www.w3.org/2000/svg">
<mask id="path-1-inside-1" fill="white">
<rect y="8" width="148" height="35" rx="1"/>
</mask>
<rect y="8" width="148" height="35" rx="1" stroke="white" stroke-width="4" mask="url(#path-1-inside-1)"/>
<rect x="112" y="2" width="18" height="6" stroke="white" stroke-width="2"/>
<rect x="110.5" y="0.5" width="21" height="2" rx="0.5" stroke="white"/>
<rect x="18" y="2" width="18" height="6" stroke="white" stroke-width="2"/>
<rect x="16.5" y="0.5" width="21" height="2" rx="0.5" stroke="white"/>
<rect x="65" y="2" width="18" height="6" stroke="white" stroke-width="2"/>
<rect x="63.5" y="0.5" width="21" height="2" rx="0.5" stroke="white"/>
<line x1="19" y1="42" x2="19" y2="72" stroke="white" stroke-width="2"/>
<line x1="18" y1="71" x2="36" y2="71" stroke="white" stroke-width="2"/>
<path d="M35 42L35 72" stroke="white" stroke-width="2"/>
<path d="M19 67.5H35" stroke="white"/>
<path d="M19 67.5H35" stroke="white"/>
<path d="M19 67.5H35" stroke="white"/>
<path d="M19 67.5H35" stroke="white"/>
<path d="M19 67.5H35" stroke="white"/>
<path d="M19 64.5H35" stroke="white"/>
<path d="M19 64.5H35" stroke="white"/>
<path d="M19 64.5H35" stroke="white"/>
<path d="M19 64.5H35" stroke="white"/>
<path d="M19 64.5H35" stroke="white"/>
<line x1="19" y1="55.5" x2="35" y2="55.5" stroke="white"/>
<line x1="19" y1="55.5" x2="35" y2="55.5" stroke="white"/>
<line x1="19" y1="55.5" x2="35" y2="55.5" stroke="white"/>
<line x1="19" y1="55.5" x2="35" y2="55.5" stroke="white"/>
<line x1="19" y1="55.5" x2="35" y2="55.5" stroke="white"/>
<path d="M19 61.5H35" stroke="white"/>
<path d="M19 61.5H35" stroke="white"/>
<path d="M19 61.5H35" stroke="white"/>
<path d="M19 61.5H35" stroke="white"/>
<path d="M19 61.5H35" stroke="white"/>
<line x1="19" y1="58.5" x2="35" y2="58.5" stroke="white"/>
<line x1="19" y1="58.5" x2="35" y2="58.5" stroke="white"/>
<line x1="19" y1="58.5" x2="35" y2="58.5" stroke="white"/>
<line x1="19" y1="58.5" x2="35" y2="58.5" stroke="white"/>
<line x1="19" y1="58.5" x2="35" y2="58.5" stroke="white"/>
<line x1="19" y1="42" x2="19" y2="72" stroke="white" stroke-width="2"/>
<line x1="18" y1="71" x2="36" y2="71" stroke="white" stroke-width="2"/>
<path d="M35 42L35 72" stroke="white" stroke-width="2"/>
<path d="M19 67.5H35" stroke="white"/>
<path d="M19 67.5H35" stroke="white"/>
<path d="M19 67.5H35" stroke="white"/>
<path d="M19 67.5H35" stroke="white"/>
<path d="M19 67.5H35" stroke="white"/>
<path d="M19 64.5H35" stroke="white"/>
<path d="M19 64.5H35" stroke="white"/>
<path d="M19 64.5H35" stroke="white"/>
<path d="M19 64.5H35" stroke="white"/>
<path d="M19 64.5H35" stroke="white"/>
<line x1="19" y1="55.5" x2="35" y2="55.5" stroke="white"/>
<line x1="19" y1="55.5" x2="35" y2="55.5" stroke="white"/>
<line x1="19" y1="55.5" x2="35" y2="55.5" stroke="white"/>
<line x1="19" y1="55.5" x2="35" y2="55.5" stroke="white"/>
<line x1="19" y1="55.5" x2="35" y2="55.5" stroke="white"/>
<path d="M19 61.5H35" stroke="white"/>
<path d="M19 61.5H35" stroke="white"/>
<path d="M19 61.5H35" stroke="white"/>
<path d="M19 61.5H35" stroke="white"/>
<path d="M19 61.5H35" stroke="white"/>
<line x1="19" y1="58.5" x2="35" y2="58.5" stroke="white"/>
<line x1="19" y1="58.5" x2="35" y2="58.5" stroke="white"/>
<line x1="19" y1="58.5" x2="35" y2="58.5" stroke="white"/>
<line x1="19" y1="58.5" x2="35" y2="58.5" stroke="white"/>
<line x1="19" y1="58.5" x2="35" y2="58.5" stroke="white"/>
<line x1="20" y1="52.5" x2="34" y2="52.5" stroke="white"/>
<line x1="20" y1="52.5" x2="34" y2="52.5" stroke="white"/>
<line x1="20" y1="49.5" x2="34" y2="49.5" stroke="white"/>
<line x1="20" y1="49.5" x2="34" y2="49.5" stroke="white"/>
<line x1="20" y1="46.5" x2="34" y2="46.5" stroke="white"/>
<line x1="20" y1="46.5" x2="34" y2="46.5" stroke="white"/>
<line x1="66" y1="42" x2="66" y2="72" stroke="white" stroke-width="2"/>
<line x1="65" y1="71" x2="83" y2="71" stroke="white" stroke-width="2"/>
<path d="M82 42L82 72" stroke="white" stroke-width="2"/>
<path d="M66 67.5H82" stroke="white"/>
<path d="M66 67.5H82" stroke="white"/>
<path d="M66 67.5H82" stroke="white"/>
<path d="M66 67.5H82" stroke="white"/>
<path d="M66 67.5H82" stroke="white"/>
<path d="M66 64.5H82" stroke="white"/>
<path d="M66 64.5H82" stroke="white"/>
<path d="M66 64.5H82" stroke="white"/>
<path d="M66 64.5H82" stroke="white"/>
<path d="M66 64.5H82" stroke="white"/>
<line x1="66" y1="55.5" x2="82" y2="55.5" stroke="white"/>
<line x1="66" y1="55.5" x2="82" y2="55.5" stroke="white"/>
<line x1="66" y1="55.5" x2="82" y2="55.5" stroke="white"/>
<line x1="66" y1="55.5" x2="82" y2="55.5" stroke="white"/>
<line x1="66" y1="55.5" x2="82" y2="55.5" stroke="white"/>
<path d="M66 61.5H82" stroke="white"/>
<path d="M66 61.5H82" stroke="white"/>
<path d="M66 61.5H82" stroke="white"/>
<path d="M66 61.5H82" stroke="white"/>
<path d="M66 61.5H82" stroke="white"/>
<line x1="66" y1="58.5" x2="82" y2="58.5" stroke="white"/>
<line x1="66" y1="58.5" x2="82" y2="58.5" stroke="white"/>
<line x1="66" y1="58.5" x2="82" y2="58.5" stroke="white"/>
<line x1="66" y1="58.5" x2="82" y2="58.5" stroke="white"/>
<line x1="66" y1="58.5" x2="82" y2="58.5" stroke="white"/>
<line x1="66" y1="42" x2="66" y2="72" stroke="white" stroke-width="2"/>
<line x1="65" y1="71" x2="83" y2="71" stroke="white" stroke-width="2"/>
<path d="M82 42L82 72" stroke="white" stroke-width="2"/>
<path d="M66 67.5H82" stroke="white"/>
<path d="M66 67.5H82" stroke="white"/>
<path d="M66 67.5H82" stroke="white"/>
<path d="M66 67.5H82" stroke="white"/>
<path d="M66 67.5H82" stroke="white"/>
<path d="M66 64.5H82" stroke="white"/>
<path d="M66 64.5H82" stroke="white"/>
<path d="M66 64.5H82" stroke="white"/>
<path d="M66 64.5H82" stroke="white"/>
<path d="M66 64.5H82" stroke="white"/>
<line x1="66" y1="55.5" x2="82" y2="55.5" stroke="white"/>
<line x1="66" y1="55.5" x2="82" y2="55.5" stroke="white"/>
<line x1="66" y1="55.5" x2="82" y2="55.5" stroke="white"/>
<line x1="66" y1="55.5" x2="82" y2="55.5" stroke="white"/>
<line x1="66" y1="55.5" x2="82" y2="55.5" stroke="white"/>
<path d="M66 61.5H82" stroke="white"/>
<path d="M66 61.5H82" stroke="white"/>
<path d="M66 61.5H82" stroke="white"/>
<path d="M66 61.5H82" stroke="white"/>
<path d="M66 61.5H82" stroke="white"/>
<line x1="66" y1="58.5" x2="82" y2="58.5" stroke="white"/>
<line x1="66" y1="58.5" x2="82" y2="58.5" stroke="white"/>
<line x1="66" y1="58.5" x2="82" y2="58.5" stroke="white"/>
<line x1="66" y1="58.5" x2="82" y2="58.5" stroke="white"/>
<line x1="66" y1="58.5" x2="82" y2="58.5" stroke="white"/>
<line x1="67" y1="52.5" x2="81" y2="52.5" stroke="white"/>
<line x1="67" y1="52.5" x2="81" y2="52.5" stroke="white"/>
<line x1="67" y1="49.5" x2="81" y2="49.5" stroke="white"/>
<line x1="67" y1="49.5" x2="81" y2="49.5" stroke="white"/>
<line x1="67" y1="46.5" x2="81" y2="46.5" stroke="white"/>
<line x1="67" y1="46.5" x2="81" y2="46.5" stroke="white"/>
<line x1="113" y1="42" x2="113" y2="72" stroke="white" stroke-width="2"/>
<line x1="112" y1="71" x2="130" y2="71" stroke="white" stroke-width="2"/>
<path d="M129 42L129 72" stroke="white" stroke-width="2"/>
<path d="M113 67.5H129" stroke="white"/>
<path d="M113 67.5H129" stroke="white"/>
<path d="M113 67.5H129" stroke="white"/>
<path d="M113 67.5H129" stroke="white"/>
<path d="M113 67.5H129" stroke="white"/>
<path d="M113 64.5H129" stroke="white"/>
<path d="M113 64.5H129" stroke="white"/>
<path d="M113 64.5H129" stroke="white"/>
<path d="M113 64.5H129" stroke="white"/>
<path d="M113 64.5H129" stroke="white"/>
<line x1="113" y1="55.5" x2="129" y2="55.5" stroke="white"/>
<line x1="113" y1="55.5" x2="129" y2="55.5" stroke="white"/>
<line x1="113" y1="55.5" x2="129" y2="55.5" stroke="white"/>
<line x1="113" y1="55.5" x2="129" y2="55.5" stroke="white"/>
<line x1="113" y1="55.5" x2="129" y2="55.5" stroke="white"/>
<path d="M113 61.5H129" stroke="white"/>
<path d="M113 61.5H129" stroke="white"/>
<path d="M113 61.5H129" stroke="white"/>
<path d="M113 61.5H129" stroke="white"/>
<path d="M113 61.5H129" stroke="white"/>
<line x1="113" y1="58.5" x2="129" y2="58.5" stroke="white"/>
<line x1="113" y1="58.5" x2="129" y2="58.5" stroke="white"/>
<line x1="113" y1="58.5" x2="129" y2="58.5" stroke="white"/>
<line x1="113" y1="58.5" x2="129" y2="58.5" stroke="white"/>
<line x1="113" y1="58.5" x2="129" y2="58.5" stroke="white"/>
<line x1="113" y1="42" x2="113" y2="72" stroke="white" stroke-width="2"/>
<line x1="112" y1="71" x2="130" y2="71" stroke="white" stroke-width="2"/>
<path d="M129 42L129 72" stroke="white" stroke-width="2"/>
<path d="M113 67.5H129" stroke="white"/>
<path d="M113 67.5H129" stroke="white"/>
<path d="M113 67.5H129" stroke="white"/>
<path d="M113 67.5H129" stroke="white"/>
<path d="M113 67.5H129" stroke="white"/>
<path d="M113 64.5H129" stroke="white"/>
<path d="M113 64.5H129" stroke="white"/>
<path d="M113 64.5H129" stroke="white"/>
<path d="M113 64.5H129" stroke="white"/>
<path d="M113 64.5H129" stroke="white"/>
<line x1="113" y1="55.5" x2="129" y2="55.5" stroke="white"/>
<line x1="113" y1="55.5" x2="129" y2="55.5" stroke="white"/>
<line x1="113" y1="55.5" x2="129" y2="55.5" stroke="white"/>
<line x1="113" y1="55.5" x2="129" y2="55.5" stroke="white"/>
<line x1="113" y1="55.5" x2="129" y2="55.5" stroke="white"/>
<path d="M113 61.5H129" stroke="white"/>
<path d="M113 61.5H129" stroke="white"/>
<path d="M113 61.5H129" stroke="white"/>
<path d="M113 61.5H129" stroke="white"/>
<path d="M113 61.5H129" stroke="white"/>
<line x1="113" y1="58.5" x2="129" y2="58.5" stroke="white"/>
<line x1="113" y1="58.5" x2="129" y2="58.5" stroke="white"/>
<line x1="113" y1="58.5" x2="129" y2="58.5" stroke="white"/>
<line x1="113" y1="58.5" x2="129" y2="58.5" stroke="white"/>
<line x1="113" y1="58.5" x2="129" y2="58.5" stroke="white"/>
<line x1="114" y1="52.5" x2="128" y2="52.5" stroke="white"/>
<line x1="114" y1="52.5" x2="128" y2="52.5" stroke="white"/>
<line x1="114" y1="49.5" x2="128" y2="49.5" stroke="white"/>
<line x1="114" y1="49.5" x2="128" y2="49.5" stroke="white"/>
<line x1="114" y1="46.5" x2="128" y2="46.5" stroke="white"/>
<line x1="114" y1="46.5" x2="128" y2="46.5" stroke="white"/>
</svg>
