<svg width="74" height="70"  viewBox="0 0 74 70" fill="none" xmlns="http://www.w3.org/2000/svg">
<path fill-rule="evenodd" clip-rule="evenodd" d="M3 2H71C71.5523 2 72 2.44771 72 3V67C72 67.5523 71.5523 68 71 68H3C2.44772 68 2 67.5523 2 67V3C2 2.44772 2.44772 2 3 2ZM0 3C0 1.34315 1.34315 0 3 0H71C72.6569 0 74 1.34315 74 3V67C74 68.6569 72.6569 70 71 70H3C1.34314 70 0 68.6569 0 67V3ZM68 10H7V8H68V10ZM68 15H7V13H68V15ZM68 20H7V18H68V20ZM7 25H68V23H7V25ZM68 59V63H64V59H68ZM61 62.9996L61.0574 59L57.0578 58.9426L57.0004 62.9422L61 62.9996Z" fill="white"/>
</svg>
