<svg width="71" height="43" viewBox="0 0 71 43" fill="none" xmlns="http://www.w3.org/2000/svg">
<rect x="1" y="6" width="65" height="4" stroke="white" stroke-width="2"/>
<rect x="1" y="35" width="65" height="4" stroke="white" stroke-width="2"/>
<line x1="65" y1="8" x2="70" y2="8" stroke="white" stroke-width="2"/>
<line x1="65" y1="37" x2="70" y2="37" stroke="white" stroke-width="2"/>
<line x1="70" y1="7" x2="70" y2="38" stroke="white" stroke-width="2"/>
<line x1="9" x2="9" y2="5" stroke="white" stroke-width="2"/>
<line x1="9" x2="9" y2="5" stroke="white" stroke-width="2"/>
<line x1="8" y1="10" x2="8" y2="15" stroke="white" stroke-width="2"/>
<line x1="8" y1="10" x2="8" y2="15" stroke="white" stroke-width="2"/>
<line x1="10" y1="10" x2="10" y2="15" stroke="white" stroke-width="2"/>
<line x1="10" y1="10" x2="10" y2="15" stroke="white" stroke-width="2"/>
<line x1="36" y1="10" x2="36" y2="15" stroke="white" stroke-width="2"/>
<line x1="36" y1="10" x2="36" y2="15" stroke="white" stroke-width="2"/>
<line x1="38" y1="10" x2="38" y2="15" stroke="white" stroke-width="2"/>
<line x1="38" y1="10" x2="38" y2="15" stroke="white" stroke-width="2"/>
<line x1="43" y1="10" x2="43" y2="15" stroke="white" stroke-width="2"/>
<line x1="43" y1="10" x2="43" y2="15" stroke="white" stroke-width="2"/>
<line x1="45" y1="10" x2="45" y2="15" stroke="white" stroke-width="2"/>
<line x1="45" y1="10" x2="45" y2="15" stroke="white" stroke-width="2"/>
<line x1="50" y1="10" x2="50" y2="15" stroke="white" stroke-width="2"/>
<line x1="50" y1="10" x2="50" y2="15" stroke="white" stroke-width="2"/>
<line x1="52" y1="10" x2="52" y2="15" stroke="white" stroke-width="2"/>
<line x1="52" y1="10" x2="52" y2="15" stroke="white" stroke-width="2"/>
<line x1="15" y1="10" x2="15" y2="15" stroke="white" stroke-width="2"/>
<line x1="15" y1="10" x2="15" y2="15" stroke="white" stroke-width="2"/>
<line x1="17" y1="10" x2="17" y2="15" stroke="white" stroke-width="2"/>
<line x1="17" y1="10" x2="17" y2="15" stroke="white" stroke-width="2"/>
<line x1="22" y1="10" x2="22" y2="15" stroke="white" stroke-width="2"/>
<line x1="22" y1="10" x2="22" y2="15" stroke="white" stroke-width="2"/>
<line x1="24" y1="10" x2="24" y2="15" stroke="white" stroke-width="2"/>
<line x1="24" y1="10" x2="24" y2="15" stroke="white" stroke-width="2"/>
<line x1="29" y1="10" x2="29" y2="15" stroke="white" stroke-width="2"/>
<line x1="29" y1="10" x2="29" y2="15" stroke="white" stroke-width="2"/>
<line x1="31" y1="10" x2="31" y2="15" stroke="white" stroke-width="2"/>
<line x1="31" y1="10" x2="31" y2="15" stroke="white" stroke-width="2"/>
<line x1="58" x2="58" y2="5" stroke="white" stroke-width="2"/>
<line x1="58" x2="58" y2="5" stroke="white" stroke-width="2"/>
<line x1="51" x2="51" y2="5" stroke="white" stroke-width="2"/>
<line x1="51" x2="51" y2="5" stroke="white" stroke-width="2"/>
<line x1="16" x2="16" y2="5" stroke="white" stroke-width="2"/>
<line x1="16" x2="16" y2="5" stroke="white" stroke-width="2"/>
<line x1="23" x2="23" y2="5" stroke="white" stroke-width="2"/>
<line x1="23" x2="23" y2="5" stroke="white" stroke-width="2"/>
<line x1="30" x2="30" y2="5" stroke="white" stroke-width="2"/>
<line x1="30" x2="30" y2="5" stroke="white" stroke-width="2"/>
<line x1="37" x2="37" y2="5" stroke="white" stroke-width="2"/>
<line x1="37" x2="37" y2="5" stroke="white" stroke-width="2"/>
<line x1="44" x2="44" y2="5" stroke="white" stroke-width="2"/>
<line x1="44" x2="44" y2="5" stroke="white" stroke-width="2"/>
<line x1="9" y1="38" x2="9" y2="43" stroke="white" stroke-width="2"/>
<line x1="9" y1="38" x2="9" y2="43" stroke="white" stroke-width="2"/>
<line x1="58" y1="38" x2="58" y2="43" stroke="white" stroke-width="2"/>
<line x1="58" y1="38" x2="58" y2="43" stroke="white" stroke-width="2"/>
<line x1="51" y1="38" x2="51" y2="43" stroke="white" stroke-width="2"/>
<line x1="51" y1="38" x2="51" y2="43" stroke="white" stroke-width="2"/>
<line x1="16" y1="38" x2="16" y2="43" stroke="white" stroke-width="2"/>
<line x1="16" y1="38" x2="16" y2="43" stroke="white" stroke-width="2"/>
<line x1="23" y1="38" x2="23" y2="43" stroke="white" stroke-width="2"/>
<line x1="23" y1="38" x2="23" y2="43" stroke="white" stroke-width="2"/>
<line x1="30" y1="38" x2="30" y2="43" stroke="white" stroke-width="2"/>
<line x1="30" y1="38" x2="30" y2="43" stroke="white" stroke-width="2"/>
<line x1="37" y1="38" x2="37" y2="43" stroke="white" stroke-width="2"/>
<line x1="37" y1="38" x2="37" y2="43" stroke="white" stroke-width="2"/>
<line x1="44" y1="38" x2="44" y2="43" stroke="white" stroke-width="2"/>
<line x1="44" y1="38" x2="44" y2="43" stroke="white" stroke-width="2"/>
<line x1="57" y1="10" x2="57" y2="15" stroke="white" stroke-width="2"/>
<line x1="57" y1="10" x2="57" y2="15" stroke="white" stroke-width="2"/>
<line x1="59" y1="10" x2="59" y2="15" stroke="white" stroke-width="2"/>
<line x1="59" y1="10" x2="59" y2="15" stroke="white" stroke-width="2"/>
<line x1="8" y1="29" x2="8" y2="34" stroke="white" stroke-width="2"/>
<line x1="8" y1="29" x2="8" y2="34" stroke="white" stroke-width="2"/>
<line x1="10" y1="29" x2="10" y2="34" stroke="white" stroke-width="2"/>
<line x1="10" y1="29" x2="10" y2="34" stroke="white" stroke-width="2"/>
<line x1="36" y1="29" x2="36" y2="34" stroke="white" stroke-width="2"/>
<line x1="36" y1="29" x2="36" y2="34" stroke="white" stroke-width="2"/>
<line x1="38" y1="29" x2="38" y2="34" stroke="white" stroke-width="2"/>
<line x1="38" y1="29" x2="38" y2="34" stroke="white" stroke-width="2"/>
<line x1="43" y1="29" x2="43" y2="34" stroke="white" stroke-width="2"/>
<line x1="43" y1="29" x2="43" y2="34" stroke="white" stroke-width="2"/>
<line x1="45" y1="29" x2="45" y2="34" stroke="white" stroke-width="2"/>
<line x1="45" y1="29" x2="45" y2="34" stroke="white" stroke-width="2"/>
<line x1="50" y1="29" x2="50" y2="34" stroke="white" stroke-width="2"/>
<line x1="50" y1="29" x2="50" y2="34" stroke="white" stroke-width="2"/>
<line x1="52" y1="29" x2="52" y2="34" stroke="white" stroke-width="2"/>
<line x1="52" y1="29" x2="52" y2="34" stroke="white" stroke-width="2"/>
<line x1="15" y1="29" x2="15" y2="34" stroke="white" stroke-width="2"/>
<line x1="15" y1="29" x2="15" y2="34" stroke="white" stroke-width="2"/>
<line x1="17" y1="29" x2="17" y2="34" stroke="white" stroke-width="2"/>
<line x1="17" y1="29" x2="17" y2="34" stroke="white" stroke-width="2"/>
<line x1="22" y1="29" x2="22" y2="34" stroke="white" stroke-width="2"/>
<line x1="22" y1="29" x2="22" y2="34" stroke="white" stroke-width="2"/>
<line x1="24" y1="29" x2="24" y2="34" stroke="white" stroke-width="2"/>
<line x1="24" y1="29" x2="24" y2="34" stroke="white" stroke-width="2"/>
<line x1="29" y1="29" x2="29" y2="34" stroke="white" stroke-width="2"/>
<line x1="29" y1="29" x2="29" y2="34" stroke="white" stroke-width="2"/>
<line x1="31" y1="29" x2="31" y2="34" stroke="white" stroke-width="2"/>
<line x1="31" y1="29" x2="31" y2="34" stroke="white" stroke-width="2"/>
<line x1="57" y1="29" x2="57" y2="34" stroke="white" stroke-width="2"/>
<line x1="57" y1="29" x2="57" y2="34" stroke="white" stroke-width="2"/>
<line x1="59" y1="29" x2="59" y2="34" stroke="white" stroke-width="2"/>
<line x1="59" y1="29" x2="59" y2="34" stroke="white" stroke-width="2"/>
</svg>
