<svg id="icons" enable-background="new 0 0 64 64" fill="#fefefe" height="80" viewBox="0 0 64 64" width="80" xmlns="http://www.w3.org/2000/svg"><path d="m4.004 23.004v24.989h-2.006c-.553 0-1 .447-1 1v.499c-.552.002-.998.448-.998 1s.446.998.998 1v.498c0 .553.447 1 1 1h2.006v1.017c0 .553.447 1 1 1h47.992c.553 0 1-.447 1-1v-1.017h9.004c.553 0 1-.447 1-1s-.447-1-1-1h-9.004v-.997h9.004c.553 0 1-.447 1-1s-.447-1-1-1h-9.004v-24.989-6.002-.001h9.004c.553 0 1-.447 1-1s-.447-1-1-1h-.998v-.997h.998c.553 0 1-.447 1-1s-.447-1-1-1h-3v-1.011h1.002c.553 0 1-.447 1-1s-.447-1-1-1h-4.002c-.553 0-1 .447-1 1s.447 1 1 1h1v1.011h-4.004v-.001c0-.553-.447-1-1-1h-5.966c-.009 0-.016-.005-.024-.005s-.016.005-.024.005h-5.952c-.009 0-.016-.005-.024-.005s-.016.005-.024.005h-5.952c-.009 0-.016-.005-.024-.005s-.016.005-.024.005h-5.952c-.009 0-.016-.005-.024-.005s-.016.005-.024.005h-5.952c-.009 0-.016-.005-.024-.005s-.016.005-.024.005h-5.952c-.009 0-.016-.005-.024-.005s-.016.005-.024.005h-5.952c-.009 0-.016-.005-.024-.005s-.016.005-.024.005h-5.978c-.553 0-1 .447-1 1v.001h-2.006c-.553 0-1 .447-1 1v.499c-.552.001-.998.448-.998 1s.446.999.998 1v.498c0 .553.447 1 1 1h2.006v.001zm0 27.986h-1.006v-.488c0-.004.002-.006.002-.01s-.002-.006-.002-.01v-.489h1.006zm53.998-36.986h2v.997h-2zm-4.006 0h2.006v.997h-2.006zm-5.99-1.001h3.99v2.999h-3.99zm0 4.999h3.99v1.001h-3.99zm0 3.001h3.99v1.001h-3.99zm0 3.001h3.99v29.003h-3.99zm-6-11.001h4v2.999h-4zm0 4.999h4v1.001h-4zm0 3.001h4v1.001h-4zm0 3.001h4v29.003h-4zm-6-11.001h4v2.999h-4zm0 4.999h4v1.001h-4zm0 3.001h4v1.001h-4zm0 3.001h4v29.003h-4zm-6-11.001h4v2.999h-4zm0 4.999h4v1.001h-4zm0 3.001h4v1.001h-4zm0 3.001h4v29.003h-4zm-6-11.001h4v2.999h-4zm0 4.999h4v1.001h-4zm0 3.001h4v1.001h-4zm0 3.001h4v29.003h-4zm-6-11.001h4v2.999h-4zm0 4.999h4v1.001h-4zm0 3.001h4v1.001h-4zm0 3.001h4v29.003h-4zm-6-11.001h4v2.999h-4zm0 4.999h4v1.001h-4zm0 3.001h4v1.001h-4zm0 3.001h4v29.003h-4zm-6.002-11.001h4.002v2.999h-4.002zm0 4.999h4.002v1.001h-4.002zm0 3.001h4.002v1.001h-4.002zm0 3.001h4.002v29.003h-4.002zm-3.006-9.003v-.488c0-.004.002-.007.002-.01s-.002-.006-.002-.01v-.489h1.006v.997z"/></svg>