<svg width="75" height="52" viewBox="0 0 75 52" fill="none" xmlns="http://www.w3.org/2000/svg">
<rect x="1" y="31" width="73" height="18" rx="1" stroke="white" stroke-width="2"/>
<mask id="path-2-inside-1" fill="white">
<rect x="10" y="28" width="10" height="24" rx="1"/>
</mask>
<rect x="10" y="28" width="10" height="24" rx="1" stroke="white" stroke-width="4" mask="url(#path-2-inside-1)"/>
<mask id="path-3-inside-2" fill="white">
<rect x="54" y="28" width="10" height="24" rx="1"/>
</mask>
<rect x="54" y="28" width="10" height="24" rx="1" stroke="white" stroke-width="4" mask="url(#path-3-inside-2)"/>
<mask id="path-4-inside-3" fill="white">
<rect x="25" y="24" width="24" height="8" rx="1"/>
</mask>
<rect x="25" y="24" width="24" height="8" rx="1" stroke="white" stroke-width="4" mask="url(#path-4-inside-3)"/>
<mask id="path-5-inside-4" fill="white">
<rect x="30" y="21" width="14" height="5" rx="1"/>
</mask>
<rect x="30" y="21" width="14" height="5" rx="1" stroke="white" stroke-width="4" mask="url(#path-5-inside-4)"/>
<line x1="33.9551" y1="10.9998" x2="33.9551" y2="21.9996" stroke="white" stroke-width="2"/>
<line x1="40" y1="11" x2="40" y2="22" stroke="white" stroke-width="2"/>
<mask id="path-8-inside-5" fill="white">
<rect x="29" y="5" width="16" height="7" rx="1"/>
</mask>
<rect x="29" y="5" width="16" height="7" rx="1" stroke="white" stroke-width="4" mask="url(#path-8-inside-5)"/>
<rect x="21" y="1" width="31" height="4" rx="1" stroke="white" stroke-width="2"/>
</svg>
