<svg width="58" height="68" viewBox="0 0 58 68" fill="none" xmlns="http://www.w3.org/2000/svg">
<rect x="1" y="37" width="56" height="27" rx="9" stroke="white" stroke-width="2"/>
<rect x="20" y="32" width="18" height="5" stroke="white" stroke-width="2"/>
<rect x="8" y="20" width="42" height="12" rx="3" stroke="white" stroke-width="2"/>
<line x1="15" y1="37" x2="15" y2="64" stroke="white" stroke-width="2"/>
<line x1="23" y1="37" x2="23" y2="64" stroke="white" stroke-width="2"/>
<line x1="18" y1="20" x2="18" y2="32" stroke="white" stroke-width="2"/>
<line x1="25" y1="20" x2="25" y2="32" stroke="white" stroke-width="2"/>
<line x1="15" y1="20" x2="15" y2="13" stroke="white" stroke-width="2"/>
<line x1="24" y1="20" x2="24" y2="13" stroke="white" stroke-width="2"/>
<rect x="13" y="1" width="13" height="13" rx="1" stroke="white" stroke-width="2"/>
<line x1="16" y1="10" x2="18" y2="10" stroke="white" stroke-width="2"/>
<line x1="21" y1="7" x2="23" y2="7" stroke="white" stroke-width="2"/>
<line x1="21" y1="10" x2="23" y2="10" stroke="white" stroke-width="2"/>
<rect x="12" y="64" width="11" height="3" stroke="white" stroke-width="2"/>
<rect x="36" y="64" width="11" height="3" stroke="white" stroke-width="2"/>
</svg>
