<svg width="29" height="56" viewBox="0 0 29 56" fill="none" xmlns="http://www.w3.org/2000/svg">
<rect x="1" y="1" width="27" height="54" rx="1" stroke="white" stroke-width="2"/>
<rect x="6.44872" y="15.4333" width="1.97436" height="34.0933" stroke="white"/>
<path d="M10.6538 11.9467C10.6538 13.7343 9.21117 15.18 7.43589 15.18C5.66061 15.18 4.21794 13.7343 4.21794 11.9467C4.21794 10.159 5.66061 8.71332 7.43589 8.71332C9.21117 8.71332 10.6538 10.159 10.6538 11.9467Z" stroke="white"/>
<rect x="20.5769" y="15.4333" width="1.97436" height="34.0933" stroke="white"/>
<path d="M24.7821 11.9467C24.7821 13.7343 23.3394 15.18 21.5641 15.18C19.7888 15.18 18.3462 13.7343 18.3462 11.9467C18.3462 10.159 19.7888 8.71332 21.5641 8.71332C23.3394 8.71332 24.7821 10.159 24.7821 11.9467Z" stroke="white"/>
<line y1="-0.5" x2="2.68447" y2="-0.5" transform="matrix(0.830991 -0.556286 0.553115 0.833105 7.4359 12.6934)" stroke="white"/>
<line y1="-0.5" x2="2.10755" y2="-0.5" transform="matrix(-0.705645 0.708565 -0.705645 -0.708565 21.5641 11.9467)" stroke="white"/>
<rect x="12.5" y="29.5" width="8" height="10" rx="0.5" stroke="white"/>
</svg>
