<svg width="87" height="70" viewBox="0 0 87 70" fill="none" xmlns="http://www.w3.org/2000/svg">
<path d="M7 1H80C80.5523 1 81 1.44772 81 2V68C81 68.5523 80.5523 69 80 69H7C6.44772 69 6 68.5523 6 68V2C6 1.44772 6.44772 1 7 1Z" stroke="#fff" stroke-width="2"/>
<line x1="11" y1="4" x2="11" y2="66" stroke="#fff" stroke-width="2"/>
<line x1="61" y1="4" x2="61" y2="66" stroke="#fff" stroke-width="2"/>
<line x1="26" y1="4" x2="26" y2="66" stroke="#fff" stroke-width="2"/>
<line x1="11" y1="4" x2="11" y2="66" stroke="#fff" stroke-width="2"/>
<line x1="16" y1="4" x2="16" y2="66" stroke="#fff" stroke-width="2"/>
<line x1="41" y1="4" x2="41" y2="66" stroke="#fff" stroke-width="2"/>
<line x1="31" y1="4" x2="31" y2="66" stroke="#fff" stroke-width="2"/>
<line x1="36" y1="4" x2="36" y2="66" stroke="#fff" stroke-width="2"/>
<line x1="56" y1="4" x2="56" y2="66" stroke="#fff" stroke-width="2"/>
<line x1="46" y1="4" x2="46" y2="66" stroke="#fff" stroke-width="2"/>
<line x1="51" y1="4" x2="51" y2="66" stroke="#fff" stroke-width="2"/>
<line x1="21" y1="4" x2="21" y2="66" stroke="#fff" stroke-width="2"/>
<line x1="66" y1="4" x2="66" y2="66" stroke="#fff" stroke-width="2"/>
<line x1="76" y1="4" x2="76" y2="66" stroke="#fff" stroke-width="2"/>
<line x1="71" y1="4" x2="71" y2="66" stroke="#fff" stroke-width="2"/>
<mask id="path-17-inside-1" fill="white">
<rect x="80" y="5" width="7" height="8" rx="1"/>
</mask>
<rect x="80" y="5" width="7" height="8" rx="1" stroke="#fff" stroke-width="4" mask="url(#path-17-inside-1)"/>
<mask id="path-18-inside-2" fill="white">
<rect y="5" width="7" height="8" rx="1"/>
</mask>
<rect y="5" width="7" height="8" rx="1" stroke="#fff" stroke-width="4" mask="url(#path-18-inside-2)"/>
</svg>
