<svg width="112" height="125" viewBox="0 0 112 125" fill="none" xmlns="http://www.w3.org/2000/svg">
    <rect x="43" y="1" width="13" height="123" rx="1" stroke="#fefefe" stroke-width="2"/>
    <rect x="29" y="1" width="14" height="123" rx="1" stroke="#fefefe" stroke-width="2"/>
    <rect x="15" y="1" width="14" height="123" rx="1" stroke="#fefefe" stroke-width="2"/>
    <rect x="84" y="1" width="13" height="123" rx="1" stroke="#fefefe" stroke-width="2"/>
    <rect x="70" y="1" width="14" height="123" rx="1" stroke="#fefefe" stroke-width="2"/>
    <rect x="56" y="1" width="14" height="123" rx="1" stroke="#fefefe" stroke-width="2"/>
    <rect x="10" y="109" width="5" height="8" rx="1" stroke="#fefefe" stroke-width="2"/>
    <rect x="97" y="109" width="5" height="8" rx="1" stroke="#fefefe" stroke-width="2"/>
    <rect x="107" y="107" width="4" height="12" rx="1" stroke="#fefefe" stroke-width="2"/>
    <line x1="102" y1="113" x2="107" y2="113" stroke="#fefefe" stroke-width="2"/>
    <rect x="-1" y="1" width="4" height="12" rx="1" transform="matrix(-1 0 0 1 4 106)" stroke="#fefefe" stroke-width="2"/>
    <line y1="-1" x2="5" y2="-1" transform="matrix(-1 0 0 1 10 114)" stroke="#fefefe" stroke-width="2"/>
</svg>
