<svg width="79" height="73" viewBox="0 0 79 73" fill="none" xmlns="http://www.w3.org/2000/svg">
<rect x="63.8072" y="1" width="11.1928" height="71" rx="4" stroke="#fff" stroke-width="2"/>
<rect x="48.8554" y="1" width="11.1928" height="71" rx="4" stroke="#fff" stroke-width="2"/>
<rect x="18.9518" y="1" width="11.1928" height="71" rx="4" stroke="#fff" stroke-width="2"/>
<rect x="4" y="1" width="11.1928" height="71" rx="4" stroke="#fff" stroke-width="2"/>
<rect x="33.9036" y="1" width="11.1928" height="71" rx="4" stroke="#fff" stroke-width="2"/>
<line x1="15" y1="9.5" x2="19" y2="9.5" stroke="#fff"/>
<line x1="31" y1="9.5" x2="34" y2="9.5" stroke="#fff"/>
<line x1="45" y1="9.5" x2="49" y2="9.5" stroke="#fff"/>
<line x1="60" y1="9.5" x2="64" y2="9.5" stroke="#fff"/>
<line x1="16" y1="62.5" x2="18" y2="62.5" stroke="#fff"/>
<line x1="30" y1="62.5" x2="34" y2="62.5" stroke="#fff"/>
<line x1="45" y1="62.5" x2="49" y2="62.5" stroke="#fff"/>
<line x1="60" y1="62.5" x2="64" y2="62.5" stroke="#fff"/>
<line x1="16" y1="56.5" x2="19" y2="56.5" stroke="#fff"/>
<line x1="30" y1="56.5" x2="34" y2="56.5" stroke="#fff"/>
<line x1="45" y1="56.5" x2="48" y2="56.5" stroke="#fff"/>
<line x1="60" y1="56.5" x2="64" y2="56.5" stroke="#fff"/>
<line x1="16" y1="15.5" x2="18" y2="15.5" stroke="#fff"/>
<line x1="30" y1="15.5" x2="34" y2="15.5" stroke="#fff"/>
<line x1="46" y1="15.5" x2="49" y2="15.5" stroke="#fff"/>
<line x1="60" y1="15.5" x2="64" y2="15.5" stroke="#fff"/>
<rect x="74.5" y="56.5" width="4" height="6" rx="1.5" stroke="#fff"/>
<rect x="74.5" y="9.5" width="4" height="6" rx="1.5" stroke="#fff"/>
<rect x="0.5" y="9.5" width="4" height="6" rx="1.5" stroke="#fff"/>
<rect x="0.5" y="56.5" width="4" height="6" rx="1.5" stroke="#fff"/>
</svg>
