<svg width="47" height="75" viewBox="0 0 47 65" fill="none" xmlns="http://www.w3.org/2000/svg">
<rect x="1" y="4" width="45" height="55" rx="14" stroke="white" stroke-width="2"/>
<rect x="21.5" y="0.5" width="4" height="4" stroke="white"/>
<rect x="13" y="60" width="21" height="4" stroke="white" stroke-width="2"/>
<path d="M18.0961 36.4755C17.9535 35.7586 17.9699 35.0196 18.1436 34.3105L23 25.1373L27.8564 34.3105C28.0301 35.0196 28.0465 35.7586 27.9039 36.4755C27.7543 37.2277 27.4336 37.9354 26.9668 38.5438C26.4999 39.1523 25.8993 39.6452 25.2114 39.9844C24.5236 40.3236 23.7669 40.5 23 40.5C22.2331 40.5 21.4764 40.3236 20.7886 39.9844C20.1007 39.6452 19.5001 39.1523 19.0332 38.5438C18.5664 37.9354 18.2457 37.2277 18.0961 36.4755Z" stroke="white" stroke-width="2"/>
</svg>
