<svg width="75" height="75" viewBox="0 0 75 75" fill="none" xmlns="http://www.w3.org/2000/svg">
<rect x="1" y="1" width="73" height="73" rx="1" stroke="white" stroke-width="2"/>
<rect x="17" y="12" width="41" height="18" rx="1" stroke="white" stroke-width="2"/>
<circle cx="37.5" cy="50.5" r="11.5" stroke="white" stroke-width="2"/>
<line x1="61" y1="16" x2="71" y2="16" stroke="white" stroke-width="2"/>
<line x1="61" y1="16" x2="71" y2="16" stroke="white" stroke-width="2"/>
<line x1="61" y1="16" x2="71" y2="16" stroke="white" stroke-width="2"/>
<line x1="61" y1="28" x2="71" y2="28" stroke="white" stroke-width="2"/>
<line x1="61" y1="28" x2="71" y2="28" stroke="white" stroke-width="2"/>
<line x1="61" y1="28" x2="71" y2="28" stroke="white" stroke-width="2"/>
<line x1="61" y1="22" x2="71" y2="22" stroke="white" stroke-width="2"/>
<line x1="61" y1="22" x2="71" y2="22" stroke="white" stroke-width="2"/>
<line x1="61" y1="22" x2="71" y2="22" stroke="white" stroke-width="2"/>
<line x1="4" y1="16" x2="14" y2="16" stroke="white" stroke-width="2"/>
<line x1="4" y1="16" x2="14" y2="16" stroke="white" stroke-width="2"/>
<line x1="4" y1="16" x2="14" y2="16" stroke="white" stroke-width="2"/>
<line x1="4" y1="28" x2="14" y2="28" stroke="white" stroke-width="2"/>
<line x1="4" y1="28" x2="14" y2="28" stroke="white" stroke-width="2"/>
<line x1="4" y1="28" x2="14" y2="28" stroke="white" stroke-width="2"/>
<line x1="4" y1="22" x2="14" y2="22" stroke="white" stroke-width="2"/>
<line x1="4" y1="22" x2="14" y2="22" stroke="white" stroke-width="2"/>
<line x1="4" y1="22" x2="14" y2="22" stroke="white" stroke-width="2"/>
</svg>
